HIERARCHY
ROOT hip
{
  OFFSET 0 0 0
  CHANNELS 6 Xposition Yposition Zposition Zrotation Yrotation Xrotation
  JOINT abdomen
  {
    OFFSET 0 20.6881 -0.73152
    CHANNELS 3 Zrotation Xrotation Yrotation
    JOINT chest
    {
      OFFSET 0 11.7043 -0.48768
      CHANNELS 3 Zrotation Xrotation Yrotation
      JOINT neck
      {
        OFFSET 0 22.1894 -2.19456
        CHANNELS 3 Zrotation Xrotation Yrotation
        JOINT head
        {
          OFFSET -0.24384 7.07133 1.2192
          CHANNELS 3 Zrotation Xrotation Yrotation
          JOINT leftEye
          {
            OFFSET 4.14528 8.04674 8.04672
            CHANNELS 3 Zrotation Xrotation Yrotation
            End Site
            {
              OFFSET 1 0 0
            }
          }
          JOINT rightEye
          {
            OFFSET -3.6576 8.04674 8.04672
            CHANNELS 3 Zrotation Xrotation Yrotation
            End Site
            {
              OFFSET 1 0 0
            }
          }
        }
      }
      JOINT rCollar
      {
        OFFSET -2.68224 19.2634 -4.8768
        CHANNELS 3 Zrotation Xrotation Yrotation
        JOINT rShldr
        {
          OFFSET -8.77824 -1.95073 1.46304
          CHANNELS 3 Zrotation Xrotation Yrotation
          JOINT rForeArm
          {
            OFFSET -28.1742 -1.7115 0.48768
            CHANNELS 3 Zrotation Xrotation Yrotation
            JOINT rHand
            {
              OFFSET -22.5879 0.773209 7.07136
              CHANNELS 3 Zrotation Xrotation Yrotation
              JOINT rThumb1
              {
                OFFSET -1.2192 -0.487915 3.41376
                CHANNELS 3 Zrotation Xrotation Yrotation
                JOINT rThumb2
                {
                  OFFSET -3.37035 -0.52449 3.41376
                  CHANNELS 3 Zrotation Xrotation Yrotation
                  End Site
                  {
                    OFFSET -1.78271 -1.18214 1.43049
                  }
                }
              }
              JOINT rIndex1
              {
                OFFSET -7.75947 0.938293 5.60832
                CHANNELS 3 Zrotation Xrotation Yrotation
                JOINT rIndex2
                {
                  OFFSET -2.54057 -0.884171 1.56538
                  CHANNELS 3 Zrotation Xrotation Yrotation
                  End Site
                  {
                    OFFSET -1.62519 -0.234802 1.16502
                  }
                }
              }
              JOINT rMid1
              {
                OFFSET -8.24714 1.18213 3.41376
                CHANNELS 3 Zrotation Xrotation Yrotation
                JOINT rMid2
                {
                  OFFSET -3.10165 -0.590103 1.0647
                  CHANNELS 3 Zrotation Xrotation Yrotation
                  End Site
                  {
                    OFFSET -2.48547 -0.328903 0.83742
                  }
                }
              }
              JOINT rRing1
              {
                OFFSET -8.82822 0.546677 1.51678
                CHANNELS 3 Zrotation Xrotation Yrotation
                JOINT rRing2
                {
                  OFFSET -2.60934 -0.819778 -0.0198488
                  CHANNELS 3 Zrotation Xrotation Yrotation
                  End Site
                  {
                    OFFSET -2.33842 -0.294052 0.168128
                  }
                }
              }
              JOINT rPinky1
              {
                OFFSET -8.27202 -0.0477905 -0.4584
                CHANNELS 3 Zrotation Xrotation Yrotation
                JOINT rPinky2
                {
                  OFFSET -1.82734 -0.647385 -0.700984
                  CHANNELS 3 Zrotation Xrotation Yrotation
                  End Site
                  {
                    OFFSET -1.69225 -0.51767 -0.607171
                  }
                }
              }
            }
          }
        }
      }
      JOINT lCollar
      {
        OFFSET 2.68224 19.2634 -4.8768
        CHANNELS 3 Zrotation Xrotation Yrotation
        JOINT lShldr
        {
          OFFSET 8.77824 -1.95073 1.46304
          CHANNELS 3 Zrotation Xrotation Yrotation
          JOINT lForeArm
          {
            OFFSET 28.1742 -1.7115 0.48768
            CHANNELS 3 Zrotation Xrotation Yrotation
            JOINT lHand
            {
              OFFSET 22.5879 0.773209 7.07136
              CHANNELS 3 Zrotation Xrotation Yrotation
              JOINT lThumb1
              {
                OFFSET 1.2192 -0.487915 3.41376
                CHANNELS 3 Zrotation Xrotation Yrotation
                JOINT lThumb2
                {
                  OFFSET 3.37035 -0.52449 3.41376
                  CHANNELS 3 Zrotation Xrotation Yrotation
                  End Site
                  {
                    OFFSET 1.78271 -1.18214 1.43049
                  }
                }
              }
              JOINT lIndex1
              {
                OFFSET 7.75947 0.938293 5.60832
                CHANNELS 3 Zrotation Xrotation Yrotation
                JOINT lIndex2
                {
                  OFFSET 2.54057 -0.884171 1.56538
                  CHANNELS 3 Zrotation Xrotation Yrotation
                  End Site
                  {
                    OFFSET 1.62519 -0.234802 1.16502
                  }
                }
              }
              JOINT lMid1
              {
                OFFSET 8.24714 1.18213 3.41376
                CHANNELS 3 Zrotation Xrotation Yrotation
                JOINT lMid2
                {
                  OFFSET 3.10165 -0.590103 1.0647
                  CHANNELS 3 Zrotation Xrotation Yrotation
                  End Site
                  {
                    OFFSET 2.48547 -0.328903 0.83742
                  }
                }
              }
              JOINT lRing1
              {
                OFFSET 8.82822 0.546677 1.51678
                CHANNELS 3 Zrotation Xrotation Yrotation
                JOINT lRing2
                {
                  OFFSET 2.60934 -0.819778 -0.0198488
                  CHANNELS 3 Zrotation Xrotation Yrotation
                  End Site
                  {
                    OFFSET 2.33842 -0.294052 0.168128
                  }
                }
              }
              JOINT lPinky1
              {
                OFFSET 8.27202 -0.0477905 -0.4584
                CHANNELS 3 Zrotation Xrotation Yrotation
                JOINT lPinky2
                {
                  OFFSET 1.82734 -0.647385 -0.700984
                  CHANNELS 3 Zrotation Xrotation Yrotation
                  End Site
                  {
                    OFFSET 1.69225 -0.51767 -0.607171
                  }
                }
              }
            }
          }
        }
      }
    }
  }
  JOINT rButtock
  {
    OFFSET -8.77824 4.35084 1.2192
    CHANNELS 3 Zrotation Xrotation Yrotation
    JOINT rThigh
    {
      OFFSET 0 -1.70687 -2.19456
      CHANNELS 3 Zrotation Xrotation Yrotation
      JOINT rShin
      {
        OFFSET 0 -36.8199 0.73152
        CHANNELS 3 Zrotation Xrotation Yrotation
        JOINT rFoot
        {
          OFFSET 0.73152 -45.1104 -5.12064
          CHANNELS 3 Zrotation Xrotation Yrotation
          End Site
          {
            OFFSET -1.1221 -3.69964 12.103
          }
        }
      }
    }
  }
  JOINT lButtock
  {
    OFFSET 8.77824 4.35084 1.2192
    CHANNELS 3 Zrotation Xrotation Yrotation
    JOINT lThigh
    {
      OFFSET 0 -1.70687 -2.19456
      CHANNELS 3 Zrotation Xrotation Yrotation
      JOINT lShin
      {
        OFFSET 0 -36.8199 0.73152
        CHANNELS 3 Zrotation Xrotation Yrotation
        JOINT lFoot
        {
          OFFSET -0.73152 -45.1104 -5.12064
          CHANNELS 3 Zrotation Xrotation Yrotation
          End Site
          {
            OFFSET 1.1221 -3.69964 12.103
          }
        }
      }
    }
  }
}
MOTION
Frames:	4
Frame Time:	0.03333
0.18097665160894394 60.48173904418945 -0.06922027096152306 -6.991624959914233 5.864042690215169 2.3192895569773833 -2.5736991625215486 15.287044239924692 4.161484424013852 2.6989091231691646 -10.307325778344937 1.3355565140057817 -4.922793103715929 15.327455054149072 -2.9915669342917552 8.675304156362811 -24.959558576430304 -4.582878494386489 0.05373029675571355 -0.03159213287139484 -0.026367344981239205 -0.22139631307773205 -0.06589969282469287 0.019953477185479886 0.0970495175864765 -0.061474077088068395 -0.009378870256739042 43.70336497039303 27.76902028773165 14.956060102935043 -24.27892339544936 -30.192537037339545 63.803570093892134 -4.932728040750535 -9.99761511929894 -5.732664001529973 0.13212712800784057 -0.006423472749279648 0.08154069262188984 0.044525576312489996 -0.07481023488592986 0.00357005450180104 -0.07649032801962076 0.06645507258157952 0.13250460268118955 7.739695452344357 5.658440335819445 0.4799978405032872 0.06096776263541476 -0.035925781178062145 0.014463966104133369 2.985352742807513 1.068818950618272 0.0857048001587101 0.0562063737319754 0.06734662571167775 0.07915559589980668 10.14489790346651 0.7207507496062767 -0.00660479292740233 -0.041199274186693786 0.11580222883956963 0.043058473023112415 2.365245417590756 -0.6951641139234684 -0.11687259418770467 0.05771146994861118 0.045475559576503566 -0.05011651303496856 -51.87813493513074 30.160298544457085 -21.84737263583024 23.39396310544749 -28.46800647946512 -60.56020695518739 5.606427591516152 -14.244238278203824 5.175096876561615 -0.07637304086496695 0.06857707361848497 0.012737022141604402 -0.01713513035856371 0.08788551147400857 0.07337896340926839 -0.029625198472989837 0.04855445410787193 0.04277539369852712 -7.890623849981421 5.538405737571995 -0.38270515751018763 -0.04025395999730816 -0.023004770815690526 -0.024382307913491025 -2.931200655190125 0.9132578704549407 -0.08850572466715745 0.060404325389741595 -0.04504691184523238 0.021701031777437894 -10.357080291353896 0.7159472056290537 0.1308108224887322 -0.05448948829021633 0.05369451830385032 -0.07936637126872505 -2.2042627680520215 -0.7790677051526389 0.4115916816966112 -0.05673112435930278 0.01036267763137872 -0.01493231430995526 -29.46296013586088 -35.24794594775409 -28.39508908743336 -6.496498570564485 60.2509838008934 7.446303822772813 -4.98683039605303 -10.081936365923687 -9.676221421677637 -0.0031125919099688577 0.07872944278840813 -0.08917783128974258 33.709015535291 -33.06996596107169 30.279724402094757 6.67798694209548 61.14680409167559 -8.105618568259558 5.246033086847252 -10.02279973431607 12.771115884620167
-0.1439899206161499 64.49246406555176 -0.11500930413603783 -4.041300842265131 4.23308316264898 5.0728224777034905 -2.7461996454350404 14.22701766375893 2.9959811574862876 2.8819669441053803 -9.278426935547863 0.8852931550022044 -5.1539348160788 15.63292672704143 -4.747213699590643 9.282744468876958 -25.574490752690306 -6.7718290455364 0.013153423557137172 -0.08613925088273315 0.0043523913062451765 0.08730497207498393 0.01806307559033341 0.0016689540556499712 -0.05301987704075289 0.08721759367837537 0.03306835419651012 53.4116729132441 30.715193357912675 15.32926846937371 -23.829018834820623 -28.554900146086023 65.81510861578508 -3.8523120692518167 -9.510104390873757 -4.036132523497547 -0.13487403799294928 0.08723827100887052 -0.22222257920431848 -0.026196230066231875 0.056988323670236075 0.05994595566341027 0.02361196396073408 -0.0463152993184449 -0.09458648733874642 7.855374951222277 5.432551038928314 0.4620392454629138 -0.0634125434714562 -0.03976712225595963 0.04064023921138411 2.864921566701379 0.8610426750757799 0.030617430192279638 -0.002189182350694868 -0.08618770253715793 -0.10756480725712268 10.507004651182967 0.7236633450396112 0.05561764344203203 0.13887217993706616 -0.12944905352296088 -0.10036514754169455 2.142749017169829 -0.9475408310550562 -0.32847921847239864 -0.06650042930653664 -0.04315542969281486 -0.06643255430165965 -63.23154858109273 33.53326110756824 -25.569777922163 22.728875142564792 -26.45746004254912 -62.25793926585327 5.10679669240878 -11.38113909135037 3.4210379168013443 -0.01606983429145328 -0.16387704892123328 -0.04713748333978519 0.14526942582715002 -0.037069064131672366 -0.011896375265163928 0.05164295359276063 -0.01901116454406936 -0.0038647131314636213 -7.639668185723166 5.474230133904201 -0.5868191176362305 0.10822936331902376 -0.11174899181484307 -0.13940045238068435 -3.0208646038497022 0.9874343651715138 -0.18440387513081077 -0.09214581528837756 0.03149261488075364 0.06736452827782259 -10.272082002227672 0.7302046919129264 -0.24893680974998708 0.22371201401063084 -0.03765739421521905 0.06696776365615362 -2.1898820181979715 -0.7651491670063281 0.03374444287274222 -0.04336876638267198 0.07212114138492823 0.018770720540943753 -32.57630379352526 -36.21652482866984 -27.365743721019292 -4.425409763732315 63.65635219652168 5.9552620010148045 -4.563435080253579 -9.648017863047361 -10.588489661754865 0.12072065873306638 0.06386668435019593 0.17756336063576367 36.81312819229211 -33.407927136298504 29.339231259046098 3.428446751060104 63.81055054722388 -4.593094322950713 5.243470058361204 -10.021661654045616 15.6127076595509
-0.28611719608306885 58.190739154815674 0.06997687742114067 -2.7068987369507873 -9.73163474641395 7.56907903442473 1.3814335072785822 9.828595258097804 3.43715246748752 1.8803860832240067 -6.609792625874779 1.1918814571021534 -4.590194053874396 12.564593162233786 -3.697528456715103 7.873925745008032 -19.421260414337738 -6.3710860521192965 -0.2976981972453692 -0.06854489702419186 -0.04947835725503516 0.4295467549206938 0.1390747110542129 0.06430915254236581 0.08201328301551654 0.1477947015097771 -0.06721845961314085 55.044648200389084 28.669852229817337 3.268050857459756 -18.121854490783246 -15.206784394535164 41.303861458359606 -0.18014938764940686 -2.241766696454327 -0.4460280013879345 -0.06723851662372116 0.04054528357366507 -0.11189858896592222 0.23694854709614532 -0.018338711075940445 -0.35202002573580293 -0.072343442698071 -0.3301670756101851 0.02258241966506044 6.71705391660066 4.874116906822187 0.4912551661942318 -0.09034173821299506 -0.11907725118573785 -0.12966193664556844 2.3687680876551904 0.8818632261000945 0.08907368424511311 0.23276073400042835 0.19108190582880563 0.5595388084826707 9.2256099364698 0.705073704552952 -0.20279744116352288 -0.06062123725674239 0.1456223011473164 0.001029117408850515 2.0323874608909978 -0.8057905534760493 -0.18100662975109635 0.003638356393501167 0.15061783747324026 -0.23126406879854933 -62.14113620085688 25.06578167840234 -15.139466050075518 14.795320138555256 -10.790892926298085 -33.725326027029 0.1325280280956086 7.384054332450963 -1.8781861219810279 -0.012911778934821526 -0.3838692245159988 -0.19547206327868422 0.1381140556196212 0.06801617101332412 -0.14493906878690355 0.2587897845145536 0.03156873413740226 -0.10752318579186791 -6.857635431418801 4.601104854186668 -0.48542837450197623 -0.14728812025285903 -0.2291764855117584 -0.21171604071354638 -2.494156913881696 0.8317357207294304 -0.06479541665454577 -0.08236695874847627 0.5428630083457904 -0.17456530779652477 -9.049387640788886 0.7296421618017523 -0.20717500545211925 0.03956088255953698 -0.01404612394557255 -0.04393305740199139 -2.0578011006887342 -1.0478107828351937 0.11502689564706739 -0.3761681328659566 0.5853702637585415 0.03519604483435504 -6.558421492466644 -18.190491061752706 -1.5708032767815359 6.090128355044937 43.249925786868815 -4.497878497712973 -5.993338598090333 -11.317988869831725 -16.050555228747275 0.03287951680823646 0.002738252186727202 0.17741683173372574 26.45779984446033 -33.707857818226685 16.832678483058142 -3.586561361477668 50.394163639824164 2.576138607272301 2.618033280093867 -3.8901146049868984 8.749483425843735
-0.9438589215278625 68.24420690536499 -0.20467834547162056 -3.6137847879620466 -17.82920820560488 13.260334160337855 4.539474776645174 9.113281499153416 5.553083814098351 1.0408445234903094 -7.032232995850898 1.9944912234982397 -6.528962459689557 13.316415989839184 -5.874447629642037 10.244871382347988 -20.694762845464954 -11.419913221494886 0.01339845659361138 -0.38735134033223595 -0.00611231227586061 0.19364205282879682 0.40493651612408005 0.03348130716692483 0.2115131360704294 0.07421104586881991 -0.1081395103128624 66.58474116165128 28.165912335117333 -3.4125042357636484 -15.790821917631908 -5.876024549566663 23.398747652961084 2.578931727756013 9.179028046330313 3.886673897192505 0.26479618883763933 -0.012273796577660022 0.5991132446988419 0.2442404143653686 -0.10767609131582628 -0.4244599181754739 -0.1465904804621657 0.12544357446157153 -0.020483310434045113 7.244815803578375 4.9477241479601215 0.3579501507196814 -0.3847003731606247 0.01220357369525583 -0.7749984065111922 2.478404363221531 0.5228374273078419 0.11310639853089055 0.060224659398058523 0.33254942424834444 0.3846823371923477 10.45819099673218 1.4610975253847316 -0.24560778622069343 -0.2112796289781796 0.21870980757809563 0.02474508167186862 2.4230111021659044 -0.8045351326900892 0.4126555903815465 0.08287708850211159 -0.02798990177530069 -0.4228998069195078 -76.18056271906141 27.310557500072882 -2.6769637253659138 12.286667642264089 -2.5845213838180223 -17.27943091138492 -1.253155511033161 19.933789271919032 -3.400228037947608 0.2547872403000732 -0.5430646056480115 -0.11021806894540818 -0.031706058292316534 -0.10138084469604305 0.06065069244753807 0.038162081161859526 0.061882501056094004 0.18733255886129174 -7.61996992015685 5.136097350174488 -0.18016608959636166 -0.7217334964339652 -0.45879335814242395 -0.4291459348742051 -2.4638763374135024 0.41487721613079886 0.1435048624633331 0.07907080550456332 0.2711270271463007 -0.45338294118527467 -9.751630978982808 0.8839621752485511 0.3498352456554715 -0.3276927862224951 -0.17144644598634123 -0.14211659983410155 -2.31897771615309 -1.6665078874317545 0.1588419188424645 -0.39874164126858425 0.5625178381778541 -0.204557041968021 7.898855081704932 -7.601074201818009 8.926784037639864 -0.1647134802902954 37.36433128850131 2.370010968640721 -9.196340014555357 -15.82056568392002 -22.867080605325416 0.09412432899185985 -0.3881058094312579 0.31486339644453687 17.544604468174203 -44.519572576209555 5.900739162191531 -2.370801776480562 48.89904889088671 2.7401766992475585 0.9707357265895963 -1.5692178191204467 2.646777490885631
